<?xml version="1.0" encoding="UTF-8" standalone="no"?>
<svg
   xmlns:dc="http://purl.org/dc/elements/1.1/"
   xmlns:cc="http://creativecommons.org/ns#"
   xmlns:rdf="http://www.w3.org/1999/02/22-rdf-syntax-ns#"
   xmlns:svg="http://www.w3.org/2000/svg"
   xmlns="http://www.w3.org/2000/svg"
   viewBox="0 0 500 108"
   height="108"
   width="500"
   xml:space="preserve"
   id="svg2"
   version="1.1"><metadata
     id="metadata8"><rdf:RDF><cc:Work
         rdf:about=""><dc:format>image/svg+xml</dc:format><dc:type
           rdf:resource="http://purl.org/dc/dcmitype/StillImage" /></cc:Work></rdf:RDF></metadata><defs
     id="defs6" /><g
     transform="matrix(1.3333333,0,0,-1.3333333,0,108)"
     id="g10"><g
       transform="scale(0.1)"
       id="g12"><path
         id="path14"
         style="fill:#a1543f;fill-opacity:1;fill-rule:evenodd;stroke:none"
         d="m 106.762,321.52 v 72.5 H 440.27 c 15.281,1.57 23.601,9.89 24.96,24.96 -1.359,15.04 -9.679,23.36 -24.96,24.969 H 106.762 V 514.41 H 440.27 c 15.281,1.371 23.601,9.692 24.96,24.969 -1.359,15.07 -9.679,23.391 -24.96,24.961 H 106.762 v 72.5 h 322.066 c 37.07,-0.668 69.223,-11.801 96.442,-33.399 27.429,-21.8 45.98,-50 55.628,-84.652 80.512,1.832 147.153,4.492 200,8.121 52.622,3.36 107.223,6.61 163.903,9.77 56.649,3.121 131.289,4.73 223.909,4.73 108.17,-0.469 197.74,-6.41 268.79,-17.89 70.82,-11.489 107.58,-25.86 110.27,-43.168 -2.69,-17.543 -39.45,-32.383 -110.27,-44.493 -71.05,-12.148 -160.62,-18.558 -268.79,-19.257 -92.62,0.238 -167.26,2.027 -223.909,5.429 -56.68,3.36 -111.281,6.84 -163.903,10.43 -52.617,3.59 -119.296,5.98 -200,7.07 C 571.25,404.73 552.699,376.48 525.27,354.922 498.051,333.32 465.898,322.191 428.828,321.52 H 106.762" /><path
         id="path16"
         style="fill:#fdcf9c;fill-opacity:1;fill-rule:evenodd;stroke:none"
         d="m 917.109,545.781 c 13.512,56.207 25.551,78.598 36.129,67.11 10.742,-11.481 20.672,-52.692 29.653,-123.75 13.48,-89.731 23.829,-136.129 31.059,-139.301 7.38,-3.16 12.1,16.762 14.14,59.691 2.26,39.141 4.06,66.09 5.39,80.938 1.13,14.84 1.68,21.91 1.68,21.25 -0.43,2.691 2.5,4.301 8.79,4.73 3.35,-1.801 5.03,-5.508 5.03,-11.14 0,-5.618 -0.07,-8.75 -0.31,-9.45 0,-0.898 -0.23,-10.199 -0.66,-27.968 -0.47,-17.77 -1.84,-37.891 -4.06,-60.391 -2.27,-22.23 -4.73,-42.461 -7.43,-60.699 -2.69,-18.211 -4.72,-30.551 -6.09,-37.11 -2.89,-11.453 -9.22,-12.351 -18.87,-2.66 -9.68,9.418 -17.771,30 -24.259,61.68 -10.11,65.238 -16.871,114.449 -20.231,147.738 -5.859,32.141 -10.468,47.223 -13.832,45.192 -4.527,-0.7 -9.019,-5.981 -13.508,-15.86 h -22.621 m -247.5,0 h 24.922 c 11.489,81.84 22.848,136.367 34.098,163.559 11.25,25.43 19.961,32.18 26.293,20.23 6.527,-11.91 11.328,-39.101 14.488,-81.601 3.602,-42.27 7.192,-91.289 10.789,-147.028 3.352,-55.742 7.653,-110.082 12.852,-162.89 4.918,-53.051 11.437,-96.449 19.527,-130.199 5.391,-18.442 13.594,-29.223 24.652,-32.34 10.782,-3.172 20,3.008 27.61,18.508 7,16.64 14.648,44.531 22.969,83.64 8.281,39.141 16.531,84.641 24.613,136.602 h -20.231 c -2.269,-11.024 -4.531,-23.172 -6.761,-36.41 -14.379,-93.75 -27.071,-144.692 -38.09,-152.774 -10.82,-8.129 -20.039,16.871 -27.649,74.844 -7.66,58.008 -13.871,139.18 -18.562,243.519 -5.43,95.739 -14.488,168.59 -27.34,218.508 C 760.738,811.879 745.352,822.891 727.621,795 709.609,766.91 690.27,683.828 669.609,545.781 M 404.18,654.73 c 14.84,57.54 30.781,96.75 47.89,117.692 17.11,20.898 32.578,14.808 46.52,-18.203 13.75,-32.848 23.051,-101.52 28.012,-206.098 3.398,-104.062 8.32,-198.281 14.847,-282.57 6.281,-84.571 14.371,-144.571 24.289,-180.1213 9.883,-35.5078 21.801,-31.8008 35.711,11.1289 13.75,42.9724 29.723,139.7304 47.93,290.3904 l 2.031,27.313 h 24.918 C 674.102,392.66 671.84,369.961 669.609,346.129 660.16,254.84 648.359,176.84 634.18,112.109 620,47.3398 605.43,11.9102 590.352,5.85938 560.43,-3.35938 538.52,35.1992 524.57,121.52 c -6.05,31.96 -11.332,78.832 -15.859,140.671 -4.449,61.789 -8.09,123.508 -10.781,185.11 -2.7,61.609 -4.489,108.051 -5.391,139.301 -1.801,42.226 -3.91,75.429 -6.41,99.449 -2.688,24.07 -8.859,37.898 -18.551,41.527 -9.648,2.934 -21.68,-21.367 -36.098,-72.848 h -27.3 M 18.3594,470.941 c 0.2304,-1.8 4.8398,-13.171 13.832,-34.101 9.2578,-20.899 20.9297,-40.121 35.0781,-57.66 14.1797,-17.301 29.1407,-21.481 44.8785,-12.461 15.942,8.75 30.903,42.031 44.84,99.801 27.66,120.32 52.274,184.378 73.832,192.23 21.602,7.891 37.809,-47.23 48.59,-165.23 6.059,-75.551 14.852,-130.161 26.289,-163.911 11.492,-33.519 23.172,-41.597 35.082,-24.3 h 31.68 c -23.121,-55.969 -42.813,-80.11 -58.981,-72.5 -12.39,7.421 -22.82,25.39 -31.371,53.992 -8.32,28.75 -15.269,64.41 -20.937,106.91 -6.481,42.891 -12.113,83.168 -16.832,120.699 -4.5,37.539 -9.461,60.16 -14.852,67.82 -6.047,2.461 -13.707,-10.941 -22.929,-40.16 -9.219,-28.98 -17.418,-61.019 -24.61,-96.09 -6.75,-34.179 -16.64,-66.019 -29.679,-95.468 -13.051,-29.461 -29.692,-41.492 -49.93,-36.063 -22.0314,8.992 -41.0119,26.172 -56.9884,51.571 -15.9727,25.429 -26.4024,45.968 -31.3711,61.71 -9.21097,28.129 -13.820344,42.5 -13.820344,43.211 -0.429687,1.989 0,5.938 1.359374,11.789 1.57031,6.059 7.19141,2.11 16.83987,-11.789" /><path
         id="path18"
         style="fill:#a25641;fill-opacity:1;fill-rule:nonzero;stroke:none"
         d="m 1666.33,456.02 40.31,4.839 v 218.442 l -59.84,-3.281 -11.57,-28.129 -14.84,-0.313 4.06,50 h 196.1 l -0.32,-50.469 -13.59,-1.558 -8.44,30.621 -59.53,3.129 V 460.859 l 42.97,-4.839 v -14.071 h -115.31 z m 178.98,0 24.69,3.429 V 682.27 l -28.12,5.929 v 14.379 l 52.03,6.871 7.65,-3.75 -0.31,-72.808 -0.47,-28.442 c 4.77,3.949 10,7.43 15.63,10.473 5.7,3.129 11.4,5.699 17.03,7.808 5.7,2.192 11.29,3.829 16.72,5 5.5,1.141 10.46,1.719 14.84,1.719 11.13,0 20.23,-1.719 27.34,-5.148 7.19,-3.36 12.82,-8.563 16.88,-15.629 4.14,-7.113 7.03,-16.211 8.59,-27.344 1.57,-11.058 2.27,-24.18 2.19,-39.379 v -82.5 l 24.69,-3.429 v -14.071 h -84.07 v 14.071 l 27.66,3.429 v 68.442 c 0,12.699 -0.31,23.91 -0.94,33.589 -0.54,9.692 -2.11,17.739 -4.68,24.219 -2.62,6.571 -6.53,11.449 -11.72,14.692 -5.12,3.32 -12.19,5 -21.25,5 -3.67,0 -7.5,-0.231 -11.57,-0.621 -4.06,-0.43 -8.2,-1.18 -12.34,-2.192 -4.06,-1.058 -8.2,-2.457 -12.34,-4.219 -4.06,-1.8 -8.05,-4.019 -11.88,-6.718 V 459.449 l 24.22,-3.429 v -14.071 h -80.47 z" /><path
         id="path20"
         style="fill:#a25641;fill-opacity:1;fill-rule:nonzero;stroke:none"
         d="m 2072.42,533.52 c 0,14.058 2.23,26.949 6.72,38.75 4.45,11.871 10.66,22.109 18.59,30.781 8.01,8.75 17.58,15.621 28.75,20.621 11.14,5 23.48,7.656 37.04,7.969 9.68,0.199 18.36,-1.211 26.09,-4.219 7.81,-3.043 14.45,-7.5 20,-13.442 5.51,-5.929 9.84,-13.199 12.97,-21.71 3.12,-8.559 4.88,-18.25 5.31,-29.071 0.2,-6.988 0.04,-13.039 -0.47,-18.121 -0.43,-5 -0.94,-9.488 -1.56,-13.437 h -121.88 c 0,-0.621 0,-1.25 0,-1.871 0,-0.629 0.04,-1.25 0.16,-1.879 0.39,-13.243 2.66,-24.219 6.72,-32.969 4.06,-8.672 9.1,-15.543 15.16,-20.621 6.13,-5.121 12.85,-8.711 20.15,-10.781 7.38,-2 14.57,-2.969 21.56,-2.969 4.38,0 8.91,0.23 13.6,0.777 4.69,0.512 9.26,1.172 13.75,2.031 4.45,0.942 8.59,2.032 12.34,3.282 3.75,1.25 6.76,2.5 9.06,3.75 l 6.1,-13.911 c -3.13,-2.929 -7.27,-5.539 -12.35,-7.808 -5.11,-2.301 -10.7,-4.223 -16.71,-5.781 -6.06,-1.563 -12.43,-2.731 -19.07,-3.59 -6.56,-0.821 -12.97,-1.25 -19.22,-1.25 -13.24,0 -25,2.258 -35.31,6.719 -10.23,4.57 -18.87,10.968 -25.94,19.21 -6.99,8.321 -12.34,18.36 -16.09,30.161 -3.67,11.757 -5.47,24.879 -5.47,39.379 z m 121.88,17.652 c 0.31,5.508 0.35,11.098 0.15,16.719 -0.11,5.699 -0.78,11.129 -2.03,16.25 -1.17,5.078 -2.97,9.73 -5.47,13.91 -2.42,4.25 -5.74,7.687 -10,10.308 -2.81,1.871 -6.05,3.282 -9.68,4.219 -3.56,0.942 -7.66,1.402 -12.35,1.402 -6.17,0 -12.11,-1.171 -17.81,-3.429 -5.74,-2.313 -10.9,-6.02 -15.47,-11.102 -4.61,-5 -8.44,-11.519 -11.56,-19.527 -3.05,-7.934 -4.96,-17.5 -5.78,-28.75 z" /><path
         id="path22"
         style="fill:#a25641;fill-opacity:1;fill-rule:nonzero;stroke:none"
         d="m 2344.92,456.02 31.1,4.839 v 216.09 l -27.19,2.821 v 17.808 h 43.28 c 5.31,0 12.11,0.352 20.47,1.094 8.32,0.816 17.97,1.25 28.9,1.25 12.58,0 24.22,-1.051 34.85,-3.121 10.62,-2.11 19.72,-5.75 27.34,-10.942 7.7,-5.238 13.67,-12.269 17.97,-21.089 4.26,-8.75 6.41,-19.77 6.41,-32.969 0,-8.563 -1.37,-16.641 -4.07,-24.223 -2.61,-7.617 -6.36,-14.527 -11.25,-20.777 -4.8,-6.18 -10.58,-11.571 -17.34,-16.25 -6.8,-4.692 -14.3,-8.52 -22.5,-11.41 0.63,-0.231 1.17,-0.43 1.72,-0.621 0.51,-0.239 1.01,-0.43 1.56,-0.629 5.2,-2.621 10.2,-6.719 15,-12.34 4.88,-5.551 9.53,-11.801 13.91,-18.75 4.45,-6.879 8.75,-14.071 12.81,-21.571 4.06,-7.421 7.89,-14.289 11.56,-20.621 3.75,-6.25 7.23,-11.558 10.47,-15.937 3.2,-4.371 6.25,-6.992 9.06,-7.813 l 17.66,-4.839 v -14.071 h -47.66 c -2.1,0 -4.37,1.602 -6.87,4.852 -2.42,3.32 -5.08,7.648 -7.97,12.969 -2.81,5.308 -5.86,11.402 -9.06,18.281 -3.24,6.871 -6.64,13.789 -10.16,20.777 -3.55,7.07 -7.3,13.942 -11.25,20.621 -3.87,6.762 -7.93,12.699 -12.19,17.821 -4.18,5.07 -8.55,9.058 -13.12,11.871 -4.49,2.89 -9.14,4.14 -13.91,3.75 -3.86,-0.231 -7.97,-0.313 -12.34,-0.313 -4.3,0 -8.99,0 -14.06,0 v -91.879 l 34.06,-4.679 v -14.071 h -97.19 z m 63.13,115.152 c 1.33,-0.231 3.28,-0.391 5.78,-0.473 2.58,-0.109 5.31,-0.23 8.12,-0.308 2.89,0 5.71,-0.082 8.44,-0.161 2.81,0 5.08,0 6.88,0 8.75,0 16.64,1.098 23.75,3.29 7.07,2.179 13.04,5.621 17.96,10.308 5,4.692 8.79,10.66 11.41,17.973 2.7,7.258 4.06,16.008 4.06,26.25 0,8.429 -0.93,16.09 -2.81,22.969 -1.8,6.871 -4.92,12.652 -9.37,17.339 -4.38,4.762 -10.28,8.442 -17.66,10.942 -7.31,2.5 -16.41,3.469 -27.34,2.969 -5.43,-0.239 -10.63,-0.43 -15.63,-0.629 -4.92,-0.121 -9.45,-0.743 -13.59,-1.871 z" /><path
         id="path24"
         style="fill:#a25641;fill-opacity:1;fill-rule:nonzero;stroke:none"
         d="m 2580.94,533.52 c 0,14.058 2.22,26.949 6.72,38.75 4.45,11.871 10.66,22.109 18.59,30.781 8.01,8.75 17.58,15.621 28.75,20.621 11.13,5 23.48,7.656 37.03,7.969 9.69,0.199 18.36,-1.211 26.09,-4.219 7.82,-3.043 14.46,-7.5 20,-13.442 5.51,-5.929 9.85,-13.199 12.97,-21.71 3.13,-8.559 4.89,-18.25 5.32,-29.071 0.19,-6.988 0.04,-13.039 -0.47,-18.121 -0.43,-5 -0.94,-9.488 -1.56,-13.437 H 2612.5 c 0,-0.621 0,-1.25 0,-1.871 0,-0.629 0.04,-1.25 0.16,-1.879 0.39,-13.243 2.65,-24.219 6.72,-32.969 4.06,-8.672 9.1,-15.543 15.15,-20.621 6.13,-5.121 12.85,-8.711 20.16,-10.781 7.38,-2 14.57,-2.969 21.56,-2.969 4.37,0 8.91,0.23 13.59,0.777 4.69,0.512 9.26,1.172 13.75,2.031 4.46,0.942 8.6,2.032 12.35,3.282 3.75,1.25 6.76,2.5 9.06,3.75 l 6.09,-13.911 c -3.12,-2.929 -7.26,-5.539 -12.34,-7.808 -5.12,-2.301 -10.7,-4.223 -16.72,-5.781 -6.05,-1.563 -12.42,-2.731 -19.06,-3.59 -6.56,-0.821 -12.97,-1.25 -19.22,-1.25 -13.24,0 -25,2.258 -35.31,6.719 -10.24,4.57 -18.87,10.968 -25.94,19.21 -6.99,8.321 -12.34,18.36 -16.09,30.161 -3.68,11.757 -5.47,24.879 -5.47,39.379 z m 121.87,17.652 c 0.31,5.508 0.35,11.098 0.16,16.719 -0.12,5.699 -0.78,11.129 -2.03,16.25 -1.17,5.078 -2.97,9.73 -5.47,13.91 -2.42,4.25 -5.74,7.687 -10,10.308 -2.81,1.871 -6.06,3.282 -9.69,4.219 -3.55,0.942 -7.66,1.402 -12.34,1.402 -6.17,0 -12.11,-1.171 -17.82,-3.429 -5.74,-2.313 -10.89,-6.02 -15.46,-11.102 -4.61,-5 -8.44,-11.519 -11.57,-19.527 -3.04,-7.934 -4.96,-17.5 -5.78,-28.75 z" /><path
         id="path26"
         style="fill:#a25641;fill-opacity:1;fill-rule:nonzero;stroke:none"
         d="m 2780.59,489.77 h 14.68 l 6.41,-20.161 c 2.7,-2.308 5.39,-4.339 8.12,-6.089 2.7,-1.68 5.47,-3.09 8.29,-4.219 2.81,-1.063 5.78,-1.879 8.9,-2.5 3.21,-0.551 6.76,-0.86 10.63,-0.942 6.13,-0.308 11.76,0.082 16.87,1.25 5.2,1.25 9.61,3.121 13.28,5.621 3.75,2.579 6.64,5.86 8.75,9.848 2.07,3.942 3.13,8.672 3.13,14.223 0,4.879 -1.37,9.058 -4.06,12.5 -2.62,3.508 -6.18,6.719 -10.63,9.527 -4.37,2.813 -9.37,5.391 -15,7.813 -5.55,2.379 -11.21,5 -17.03,7.808 -6.48,3.012 -12.81,6.332 -19.06,10 -6.17,3.75 -11.64,7.852 -16.41,12.352 -4.8,4.57 -8.67,9.719 -11.56,15.469 -2.81,5.699 -4.18,12.261 -4.06,19.679 0.19,5.629 1.25,10.711 3.12,15.321 1.88,4.679 4.42,8.82 7.66,12.5 3.32,3.628 7.11,6.75 11.4,9.371 4.26,2.699 8.79,4.918 13.6,6.718 4.76,1.871 9.72,3.282 14.84,4.219 5.08,0.942 10.16,1.442 15.16,1.563 5.5,0.078 10.82,-0.161 15.93,-0.782 5.08,-0.629 9.85,-1.519 14.22,-2.66 4.46,-1.051 8.48,-2.301 12.03,-3.75 3.52,-1.359 6.61,-2.769 9.22,-4.219 v -35.152 h -14.06 l -7.03,18.442 c -1.56,1.558 -3.28,3 -5.16,4.371 -1.79,1.449 -3.82,2.699 -6.09,3.75 -2.19,1.019 -4.77,1.879 -7.66,2.5 -2.81,0.699 -6.05,1.089 -9.68,1.089 -5.24,0 -10.08,-0.582 -14.54,-1.71 -4.37,-1.059 -8.24,-2.661 -11.56,-4.848 -3.36,-2.192 -6.01,-5.082 -7.97,-8.594 -1.87,-3.437 -2.89,-7.656 -2.97,-12.656 -0.23,-4.922 0.98,-9.223 3.6,-12.973 2.69,-3.668 6.17,-6.949 10.47,-9.84 4.25,-2.929 9.14,-5.699 14.68,-8.281 5.51,-2.617 11.18,-5.308 17.04,-8.129 6.01,-2.929 12.11,-5.898 18.28,-8.898 6.25,-3.051 11.79,-6.641 16.72,-10.781 5,-4.071 9.06,-8.872 12.18,-14.379 3.13,-5.551 4.69,-12.153 4.69,-19.84 0,-9.301 -1.87,-17.461 -5.62,-24.531 -3.68,-7 -8.75,-12.891 -15.32,-17.661 -6.56,-4.687 -14.22,-8.199 -22.97,-10.468 -8.67,-2.379 -17.96,-3.59 -27.96,-3.59 -10,0 -20,1.211 -30,3.59 -10,2.269 -19.18,5.699 -27.5,10.308 z" /><path
         id="path28"
         style="fill:#a25641;fill-opacity:1;fill-rule:nonzero;stroke:none"
         d="m 2968.91,485.078 c 0,20.192 0,40.231 0,60.152 0.07,19.891 0.15,39.93 0.15,60.161 h -25.15 v 12.339 c 4.76,1.25 8.79,2.231 12.03,2.969 3.32,0.711 6.01,1.571 8.12,2.5 2.19,0.942 3.95,2.071 5.32,3.442 1.44,1.449 2.81,3.519 4.06,6.25 0.7,1.879 1.64,4.609 2.81,8.281 1.13,3.629 2.23,7.348 3.28,11.098 1.02,3.75 1.92,7.261 2.66,10.621 0.82,3.437 1.33,5.82 1.56,7.187 H 3000 v -43.906 h 55.31 V 605.391 H 3000 v -82.969 c 0,-12.731 0.16,-23.082 0.47,-31.094 0.39,-7.93 1.25,-14.137 2.5,-18.598 1.33,-4.492 3.28,-7.57 5.78,-9.21 2.5,-1.571 6.02,-2.348 10.63,-2.348 2.69,0 5.7,0.238 9.06,0.777 3.32,0.629 6.56,1.289 9.68,2.031 3.13,0.821 5.98,1.641 8.6,2.5 2.69,0.942 4.73,1.879 6.09,2.821 l 5,-14.531 c -2.5,-2.739 -5.86,-5.122 -10,-7.192 -4.18,-2.109 -8.71,-3.867 -13.59,-5.308 -4.92,-1.45 -9.81,-2.5 -14.69,-3.129 -4.92,-0.7 -9.22,-1.09 -12.97,-1.09 -11.87,0 -21.17,3.668 -27.81,10.929 -6.56,7.391 -9.84,19.418 -9.84,36.098 z" /><path
         id="path30"
         style="fill:#a25641;fill-opacity:1;fill-rule:nonzero;stroke:none"
         d="m 1625.7,210.391 16.88,2.808 V 343.98 l -16.25,1.719 v 9.692 h 106.09 l 1.88,-28.121 -10,-0.161 -4.53,16.09 -57.97,1.25 v -58.75 l 43.43,0.781 3.91,14.379 h 9.69 v -41.558 h -10.94 l -2.66,15 -43.43,0.777 v -61.719 l 28.43,-2.031 v -9.379 h -64.53 z m 145.16,127.339 c -1.68,0 -3.28,0.239 -4.84,0.79 -1.49,0.621 -2.78,1.441 -3.91,2.5 -1.17,1.011 -2.11,2.261 -2.81,3.75 -0.63,1.558 -0.94,3.281 -0.94,5.152 0,2.066 0.39,3.988 1.25,5.777 0.94,1.762 2.07,3.281 3.44,4.531 1.44,1.329 3,2.391 4.68,3.129 1.76,0.7 3.52,1.09 5.32,1.09 4.37,0 7.54,-1.25 9.53,-3.75 1.95,-2.418 2.97,-5.269 2.97,-8.59 0,-2.187 -0.43,-4.179 -1.25,-5.937 -0.86,-1.793 -2,-3.281 -3.44,-4.531 -1.37,-1.172 -2.93,-2.11 -4.69,-2.813 -1.79,-0.738 -3.55,-1.098 -5.31,-1.098 z m -21.88,-127.339 16.72,2.031 v 80.937 l -13.59,7.192 v 6.09 l 27.34,7.808 4.53,-1.871 V 212.422 l 15.94,-2.031 v -8.442 h -50.94 z" /><path
         id="path32"
         style="fill:#a25641;fill-opacity:1;fill-rule:nonzero;stroke:none"
         d="m 1819.06,210.391 13.44,1.879 v 80.621 l -14.06,7.66 v 6.09 l 26.4,7.808 4.38,-1.871 v -14.219 c 2.26,1.871 5,3.75 8.12,5.621 3.13,1.961 6.45,3.68 10,5.161 3.64,1.558 7.35,2.808 11.1,3.75 3.75,0.937 7.26,1.449 10.62,1.558 6.14,0.199 11.25,-0.539 15.32,-2.179 4.14,-1.68 7.53,-4.461 10.15,-8.29 2.58,-3.75 4.42,-8.589 5.47,-14.531 1.13,-5.929 1.72,-13.039 1.72,-21.25 V 212.27 l 15.94,-1.879 v -8.442 h -49.85 v 8.442 l 15,2.031 v 52.348 c 0,5.929 -0.31,11.128 -0.93,15.621 -0.63,4.57 -1.84,8.32 -3.6,11.25 -1.68,3.007 -4.06,5.199 -7.19,6.558 -3.04,1.449 -7.11,2.071 -12.18,1.879 -4.07,-0.238 -8.4,-1.168 -12.97,-2.808 -4.49,-1.571 -9.22,-4.071 -14.22,-7.5 v -77.348 l 14.69,-2.031 v -8.442 h -47.35 z" /><path
         id="path34"
         style="fill:#a25641;fill-opacity:1;fill-rule:nonzero;stroke:none"
         d="m 1996.52,199.609 c -5.62,0 -11.05,1.09 -16.25,3.282 -5.11,2.187 -9.68,5.55 -13.75,10.16 -3.98,4.57 -7.18,10.347 -9.68,17.34 -2.43,7.07 -3.6,15.39 -3.6,25 0,8.828 1.45,16.949 4.38,24.379 3,7.378 7.07,13.75 12.18,19.058 5.2,5.391 11.25,9.57 18.13,12.5 6.95,3.012 14.45,4.531 22.5,4.531 3.44,0 6.76,-0.269 10,-0.781 3.32,-0.43 6.17,-1.019 8.59,-1.719 v 32.813 l -20.93,3.598 v 8.589 l 35.46,4.219 4.54,-2.348 V 210.391 h 13.28 v -7.5 c -1.17,-0.551 -2.58,-1.012 -4.22,-1.563 -1.68,-0.508 -3.44,-0.976 -5.31,-1.406 -1.88,-0.391 -3.83,-0.703 -5.79,-0.942 -1.87,-0.191 -3.71,-0.308 -5.46,-0.308 -1.18,0 -2.43,0.117 -3.75,0.308 -1.25,0.122 -2.43,0.551 -3.44,1.25 -1.06,0.629 -1.95,1.649 -2.66,2.969 -0.62,1.332 -0.94,3.281 -0.94,5.781 v 2.5 c -1.05,-1.171 -2.57,-2.46 -4.53,-3.902 -1.87,-1.367 -4.22,-2.617 -7.03,-3.75 -2.81,-1.168 -6.05,-2.109 -9.69,-2.969 -3.67,-0.82 -7.65,-1.25 -12.03,-1.25 z m 7.5,13.442 c 2.07,0 3.99,0.07 5.78,0.308 1.88,0.313 3.6,0.661 5.16,1.09 3.2,0.711 5.98,1.762 8.28,3.129 2.38,1.332 4.3,2.731 5.78,4.223 v 75.621 c -0.74,0.816 -1.64,1.719 -2.65,2.656 -1.06,0.942 -2.42,1.762 -4.07,2.5 -1.68,0.82 -3.71,1.442 -6.09,1.871 -2.3,0.512 -5,0.781 -8.12,0.781 -2.5,0 -5.12,-0.308 -7.82,-0.929 -2.73,-0.629 -5.43,-1.68 -8.12,-3.129 -2.62,-1.371 -5.12,-3.242 -7.5,-5.621 -2.31,-2.313 -4.38,-5.121 -6.25,-8.442 -1.88,-3.359 -3.4,-7.269 -4.53,-11.718 -1.06,-4.371 -1.64,-9.45 -1.72,-15.161 -0.12,-8.121 0.7,-15.152 2.5,-21.089 1.76,-5.942 4.1,-10.86 7.03,-14.692 3.01,-3.859 6.44,-6.719 10.31,-8.59 3.95,-1.879 7.97,-2.808 12.03,-2.808 z" /><path
         id="path36"
         style="fill:#a25641;fill-opacity:1;fill-rule:nonzero;stroke:none"
         d="m 2101.64,337.73 c -1.68,0 -3.28,0.239 -4.84,0.79 -1.49,0.621 -2.78,1.441 -3.91,2.5 -1.17,1.011 -2.11,2.261 -2.81,3.75 -0.63,1.558 -0.94,3.281 -0.94,5.152 0,2.066 0.39,3.988 1.25,5.777 0.94,1.762 2.07,3.281 3.44,4.531 1.44,1.329 3.01,2.391 4.69,3.129 1.75,0.7 3.51,1.09 5.31,1.09 4.37,0 7.54,-1.25 9.53,-3.75 1.95,-2.418 2.97,-5.269 2.97,-8.59 0,-2.187 -0.43,-4.179 -1.25,-5.937 -0.86,-1.793 -1.99,-3.281 -3.44,-4.531 -1.37,-1.172 -2.93,-2.11 -4.69,-2.813 -1.79,-0.738 -3.55,-1.098 -5.31,-1.098 z m -21.87,-127.339 16.71,2.031 v 80.937 l -13.59,7.192 v 6.09 l 27.34,7.808 4.54,-1.871 V 212.422 l 15.93,-2.031 v -8.442 h -50.93 z" /><path
         id="path38"
         style="fill:#a25641;fill-opacity:1;fill-rule:nonzero;stroke:none"
         d="m 2149.84,210.391 13.44,1.879 v 80.621 l -14.06,7.66 v 6.09 l 26.4,7.808 4.38,-1.871 v -14.219 c 2.27,1.871 5,3.75 8.12,5.621 3.13,1.961 6.45,3.68 10,5.161 3.64,1.558 7.35,2.808 11.1,3.75 3.75,0.937 7.26,1.449 10.62,1.558 6.14,0.199 11.25,-0.539 15.32,-2.179 4.14,-1.68 7.54,-4.461 10.15,-8.29 2.58,-3.75 4.42,-8.589 5.47,-14.531 1.13,-5.929 1.72,-13.039 1.72,-21.25 V 212.27 l 15.94,-1.879 v -8.442 h -49.85 v 8.442 l 15,2.031 v 52.348 c 0,5.929 -0.31,11.128 -0.93,15.621 -0.63,4.57 -1.84,8.32 -3.6,11.25 -1.68,3.007 -4.06,5.199 -7.18,6.558 -3.05,1.449 -7.11,2.071 -12.19,1.879 -4.07,-0.238 -8.4,-1.168 -12.97,-2.808 -4.49,-1.571 -9.22,-4.071 -14.22,-7.5 v -77.348 l 14.69,-2.031 v -8.442 h -47.35 z" /><path
         id="path40"
         style="fill:#a25641;fill-opacity:1;fill-rule:nonzero;stroke:none"
         d="m 2286.68,178.98 c 0,3.051 0.51,5.942 1.56,8.75 1.14,2.739 2.54,5.239 4.22,7.5 1.64,2.309 3.44,4.379 5.31,6.25 1.96,1.758 3.83,3.211 5.63,4.379 -2.93,1.02 -5.16,2.231 -6.72,3.59 -1.48,1.332 -2.5,2.742 -3.13,4.223 -0.62,1.558 -1.01,3.129 -1.09,4.687 -0.12,1.641 -0.16,3.161 -0.16,4.532 0,1.129 0.24,2.66 0.79,4.531 0.5,1.957 1.29,4.058 2.34,6.25 1.02,2.187 2.34,4.379 3.91,6.558 1.56,2.27 3.32,4.301 5.31,6.098 -5,2.891 -8.99,6.871 -11.88,11.871 -2.81,5 -4.22,11.102 -4.22,18.281 0,6.758 1.29,12.661 3.91,17.661 2.58,5 6.02,9.097 10.31,12.339 4.26,3.321 9.11,5.821 14.53,7.5 5.4,1.641 10.86,2.54 16.41,2.661 5.51,0.078 10.7,-0.469 15.63,-1.719 5,-1.25 9.37,-3.281 13.12,-6.094 1.25,1.442 3.13,2.652 5.63,3.594 2.57,0.937 5.97,1.406 10.15,1.406 h 12.03 V 298.98 h -19.37 c 1.33,-2.5 2.38,-5.39 3.12,-8.589 0.82,-3.121 1.25,-6.563 1.25,-10.313 0,-6.488 -1.21,-12.269 -3.59,-17.348 -2.42,-5 -5.63,-9.21 -9.69,-12.652 -4.06,-3.437 -8.75,-6.058 -14.06,-7.808 -5.31,-1.801 -10.9,-2.661 -16.72,-2.661 -7.73,0 -14.65,1.172 -20.78,3.59 -0.43,-1.051 -0.74,-2.179 -0.94,-3.429 -0.11,-1.18 -0.23,-2.309 -0.31,-3.442 0,-1.168 0,-2.269 0,-3.277 0.08,-1.063 0.16,-1.879 0.16,-2.5 0,-3.563 0.93,-6.332 2.81,-8.281 1.87,-2 5.15,-3.211 9.84,-3.598 2.89,-0.313 6.45,-0.473 10.63,-0.473 4.14,0 9.1,0 14.84,0 6.13,0 11.33,-0.539 15.63,-1.558 4.37,-0.942 7.96,-2.192 10.78,-3.75 2.89,-1.563 5.19,-3.403 6.87,-5.469 1.64,-2.113 2.89,-4.301 3.75,-6.563 0.94,-2.379 1.45,-4.73 1.56,-7.031 0.2,-2.379 0.32,-4.609 0.32,-6.719 0,-5.629 -1.21,-10.699 -3.6,-15.308 -2.3,-4.692 -5.7,-8.641 -10.15,-11.879 -4.5,-3.32 -9.96,-5.863 -16.41,-7.652 -6.37,-1.879 -13.59,-2.821 -21.72,-2.821 -5.94,0 -11.79,0.473 -17.5,1.41 -5.74,0.942 -10.86,2.582 -15.31,4.84 -4.49,2.313 -8.13,5.321 -10.94,9.071 -2.73,3.75 -4.06,8.511 -4.06,14.21 z m 47.5,71.25 c 4.06,0 7.5,0.508 10.31,1.571 2.81,1.129 5.08,2.847 6.88,5.148 1.75,2.27 3.01,5.082 3.75,8.442 0.82,3.437 1.25,7.379 1.25,11.879 0,9.878 -2.15,17.179 -6.41,21.871 -4.18,4.769 -10.47,7.187 -18.91,7.187 -3.24,0 -6.32,-0.469 -9.21,-1.406 -2.82,-0.863 -5.32,-2.262 -7.5,-4.223 -2.19,-1.988 -3.91,-4.648 -5.16,-7.969 -1.17,-3.351 -1.72,-7.5 -1.72,-12.5 0,-4.058 0.47,-7.96 1.41,-11.71 1.01,-3.68 2.58,-6.84 4.68,-9.54 2.19,-2.73 4.93,-4.839 8.29,-6.402 3.43,-1.558 7.54,-2.348 12.34,-2.348 z m -29.06,-65 c 0,-4.449 0.82,-8.281 2.5,-11.402 1.76,-3.129 4.06,-5.629 6.87,-7.5 2.89,-1.949 6.29,-3.359 10.16,-4.219 3.83,-0.937 7.89,-1.41 12.19,-1.41 5.31,0 10.07,0.473 14.37,1.41 4.26,0.86 7.85,2.153 10.78,3.911 3.01,1.789 5.31,4.019 6.88,6.71 1.56,2.739 2.34,5.942 2.34,9.692 0,3.129 -0.39,5.937 -1.09,8.437 -0.74,2.5 -2.15,4.61 -4.22,6.25 -2.11,1.68 -5.08,2.969 -8.91,3.911 -3.75,0.929 -8.71,1.402 -14.84,1.402 l -12.5,0.156 c -3.87,0 -7.35,0.082 -10.47,0.313 -3.05,0.199 -5.74,0.507 -8.13,0.937 -0.85,-0.937 -1.64,-1.949 -2.34,-3.129 -0.62,-1.129 -1.25,-2.418 -1.87,-3.898 -0.55,-1.449 -0.94,-3.129 -1.25,-5 -0.32,-1.879 -0.47,-4.071 -0.47,-6.571 z" /><path
         id="path42"
         style="fill:#a25641;fill-opacity:1;fill-rule:nonzero;stroke:none"
         d="m 2455.08,259.449 c 0.08,8.832 1.6,16.723 4.53,23.602 2.89,6.949 6.76,12.847 11.56,17.648 4.88,4.77 10.47,8.481 16.72,11.102 6.25,2.578 12.81,3.898 19.69,3.898 8.44,0.082 15.7,-1.359 21.87,-4.371 6.14,-2.93 11.25,-6.988 15.32,-12.187 4.06,-5.121 7.07,-11.172 9.06,-18.121 1.95,-7 2.97,-14.5 2.97,-22.5 -0.12,-8.75 -1.57,-16.801 -4.38,-24.071 -2.73,-7.179 -6.4,-13.398 -11.09,-18.59 -4.61,-5.121 -10,-9.14 -16.25,-12.031 -6.17,-2.808 -12.81,-4.219 -20,-4.219 -9.06,0 -16.8,1.641 -23.13,4.84 -6.36,3.321 -11.56,7.742 -15.62,13.281 -4.06,5.508 -6.99,11.879 -8.75,19.071 -1.8,7.258 -2.62,14.84 -2.5,22.648 z m 50.94,-48.75 c 5.62,-0.23 10.35,0.711 14.21,2.821 3.83,2.07 6.96,5.07 9.38,9.058 2.38,3.942 4.1,8.832 5.16,14.692 1.13,5.929 1.71,12.73 1.71,20.46 0,6.571 -0.58,12.7 -1.71,18.442 -1.18,5.816 -2.97,10.859 -5.47,15.156 -2.5,4.262 -5.63,7.652 -9.38,10.152 -3.75,2.5 -8.24,3.79 -13.44,3.911 -5.62,0.078 -10.43,-0.903 -14.37,-2.969 -3.87,-1.992 -7.03,-4.961 -9.53,-8.902 -2.5,-3.872 -4.38,-8.598 -5.63,-14.219 -1.17,-5.551 -1.72,-11.84 -1.72,-18.91 0,-6.481 0.63,-12.661 1.88,-18.59 1.33,-5.86 3.28,-11.063 5.78,-15.629 2.5,-4.613 5.66,-8.281 9.53,-11.094 3.83,-2.808 8.36,-4.297 13.6,-4.379 z" /><path
         id="path44"
         style="fill:#a25641;fill-opacity:1;fill-rule:nonzero;stroke:none"
         d="m 2580.23,210.391 13.44,1.879 v 80.621 l -14.06,7.66 v 6.09 l 26.41,7.808 4.37,-1.871 v -14.219 c 2.27,1.871 5,3.75 8.13,5.621 3.12,1.961 6.44,3.68 10,5.161 3.63,1.558 7.34,2.808 11.09,3.75 3.75,0.937 7.27,1.449 10.62,1.558 6.14,0.199 11.25,-0.539 15.32,-2.179 4.14,-1.68 7.54,-4.461 10.15,-8.29 2.58,-3.75 4.42,-8.589 5.47,-14.531 1.13,-5.929 1.72,-13.039 1.72,-21.25 V 212.27 l 15.94,-1.879 v -8.442 h -49.85 v 8.442 l 15,2.031 v 52.348 c 0,5.929 -0.31,11.128 -0.93,15.621 -0.63,4.57 -1.84,8.32 -3.6,11.25 -1.68,3.007 -4.06,5.199 -7.18,6.558 -3.05,1.449 -7.11,2.071 -12.19,1.879 -4.06,-0.238 -8.4,-1.168 -12.97,-2.808 -4.49,-1.571 -9.22,-4.071 -14.22,-7.5 v -77.348 l 14.69,-2.031 v -8.442 h -47.35 z" /><path
         id="path46"
         style="fill:#a25641;fill-opacity:1;fill-rule:nonzero;stroke:none"
         d="m 2715.2,210.391 16.87,2.031 v 133.75 l -15.78,3.598 v 8.589 l 30.94,4.219 3.9,-2.348 V 212.422 l 17.5,-2.031 v -8.442 h -53.43 z" /><path
         id="path48"
         style="fill:#a25641;fill-opacity:1;fill-rule:nonzero;stroke:none"
         d="m 2788.55,168.52 c 1.14,-0.399 2.43,-0.668 3.91,-0.79 1.45,-0.191 2.74,-0.308 3.91,-0.308 2.38,0 4.92,0.43 7.65,1.25 2.82,0.859 5.63,2.5 8.44,5 2.89,2.5 5.66,6.058 8.28,10.629 2.7,4.488 5.16,10.39 7.35,17.648 h -4.22 l -39.69,98.281 -10.31,1.879 v 10.469 h 45.78 v -10.469 l -14.22,-2.031 23.28,-66.25 6.56,-20.156 5.78,20.156 20,66.563 -15.46,1.718 v 10.469 h 42.65 v -10.469 l -10.94,-1.718 c -4.49,-12.731 -8.39,-23.911 -11.71,-33.59 -3.36,-9.692 -6.25,-18.129 -8.75,-25.321 -2.43,-7.101 -4.5,-13.121 -6.25,-18.121 -1.68,-4.918 -3.13,-9.019 -4.38,-12.339 -1.17,-3.25 -2.11,-5.86 -2.81,-7.821 -0.74,-1.949 -1.37,-3.629 -1.88,-5 -2.61,-6.558 -5.23,-12.418 -7.81,-17.648 -2.62,-5.321 -5.39,-9.891 -8.28,-13.75 -2.81,-3.832 -5.9,-7.031 -9.22,-9.531 -3.36,-2.5 -7.11,-4.219 -11.25,-5.161 -2.62,-0.699 -5.47,-1.089 -8.59,-1.089 -0.75,0 -1.53,0.07 -2.35,0.152 -0.74,0.117 -1.48,0.238 -2.18,0.308 -0.75,0.122 -1.41,0.282 -2.04,0.469 -0.62,0.242 -1.05,0.43 -1.25,0.629 z" /><path
         id="path50"
         style="fill:#a25641;fill-opacity:1;fill-rule:nonzero;stroke:none"
         d="m 2965.43,227.891 c 0,12.07 0,24.097 0,36.089 0.08,11.961 0.16,23.989 0.16,36.098 h -15.16 v 7.344 c 2.89,0.699 5.31,1.289 7.19,1.719 1.95,0.39 3.59,0.859 4.84,1.41 1.33,0.621 2.42,1.328 3.28,2.179 0.82,0.942 1.6,2.192 2.35,3.75 0.39,1.141 0.97,2.821 1.71,5 0.71,2.192 1.41,4.418 2.04,6.719 0.62,2.27 1.13,4.422 1.56,6.41 0.51,1.95 0.82,3.36 0.94,4.219 h 9.68 v -26.25 h 33.28 v -12.5 h -33.28 V 250.23 c 0,-7.609 0.08,-13.82 0.32,-18.589 0.19,-4.801 0.66,-8.551 1.4,-11.25 0.82,-2.731 1.96,-4.532 3.44,-5.469 1.56,-0.942 3.67,-1.402 6.41,-1.402 1.64,0 3.47,0.152 5.46,0.46 2.07,0.321 4.07,0.668 5.94,1.098 1.88,0.512 3.6,1.012 5.16,1.563 1.56,0.629 2.73,1.168 3.59,1.718 l 2.97,-8.75 c -1.48,-1.558 -3.44,-3.05 -5.94,-4.379 -2.5,-1.25 -5.23,-2.3 -8.12,-3.121 -2.93,-0.82 -5.9,-1.449 -8.91,-1.879 -2.93,-0.39 -5.47,-0.621 -7.65,-0.621 -7.19,0 -12.78,2.192 -16.72,6.563 -3.99,4.449 -5.94,11.719 -5.94,21.719 z" /><path
         id="path52"
         style="fill:#a25641;fill-opacity:1;fill-rule:nonzero;stroke:none"
         d="m 3036.88,210.391 14.84,2.031 v 133.75 l -16.88,3.598 v 8.589 l 31.25,4.219 4.69,-2.348 -0.31,-43.75 -0.16,-17.031 c 2.81,2.391 5.86,4.461 9.22,6.25 3.44,1.879 6.88,3.442 10.31,4.692 3.44,1.328 6.76,2.339 10,2.968 3.32,0.7 6.29,1.09 8.91,1.09 6.76,0 12.27,-1.051 16.56,-3.121 4.26,-1.988 7.58,-5.117 10,-9.379 2.5,-4.289 4.22,-9.758 5.16,-16.398 0.94,-6.571 1.33,-14.461 1.25,-23.602 v -49.527 l 14.84,-2.031 v -8.442 h -50.31 v 8.442 l 16.56,2.031 v 41.098 c 0,7.57 -0.23,14.289 -0.62,20.152 -0.31,5.816 -1.25,10.668 -2.81,14.527 -1.57,3.949 -3.91,6.922 -7.04,8.91 -3.04,1.95 -7.3,2.969 -12.81,2.969 -2.19,0 -4.49,-0.156 -6.87,-0.469 -2.43,-0.23 -4.85,-0.629 -7.35,-1.25 -2.5,-0.629 -5,-1.48 -7.5,-2.5 -2.42,-1.058 -4.76,-2.418 -7.03,-4.058 v -79.379 l 14.53,-2.031 v -8.442 h -48.43 z" /><path
         id="path54"
         style="fill:#a25641;fill-opacity:1;fill-rule:nonzero;stroke:none"
         d="m 3173.24,256.949 c 0,8.442 1.29,16.172 3.91,23.281 2.69,7.071 6.44,13.211 11.25,18.442 4.76,5.199 10.51,9.297 17.19,12.348 6.75,3 14.21,4.57 22.34,4.679 5.82,0.199 11.02,-0.621 15.62,-2.5 4.69,-1.789 8.68,-4.449 12.04,-7.969 3.32,-3.55 5.93,-7.929 7.81,-13.121 1.87,-5.121 2.89,-10.937 3.12,-17.5 0.08,-4.058 0,-7.66 -0.31,-10.781 -0.23,-3.047 -0.47,-5.707 -0.78,-7.969 h -73.28 c 0,-0.429 0,-0.859 0,-1.25 0,-0.308 0.04,-0.699 0.15,-1.089 0.2,-7.93 1.49,-14.5 3.91,-19.692 2.5,-5.238 5.55,-9.379 9.22,-12.5 3.63,-3.047 7.66,-5.156 12.03,-6.406 4.45,-1.25 8.79,-1.871 12.97,-1.871 2.58,0 5.31,0.148 8.12,0.469 2.82,0.308 5.55,0.699 8.29,1.25 2.69,0.621 5.15,1.281 7.34,2.031 2.27,0.699 4.14,1.437 5.62,2.179 l 3.6,-8.281 c -1.88,-1.789 -4.38,-3.359 -7.5,-4.679 -3.05,-1.372 -6.37,-2.579 -10,-3.598 -3.67,-0.942 -7.46,-1.602 -11.41,-2.031 -3.98,-0.512 -7.81,-0.782 -11.56,-0.782 -7.93,0 -14.96,1.371 -21.09,4.063 -6.18,2.699 -11.37,6.558 -15.63,11.558 -4.18,5 -7.42,10.981 -9.69,17.969 -2.18,7.071 -3.28,15 -3.28,23.75 z m 73.13,10.473 c 0.19,3.316 0.23,6.719 0.15,10.156 -0.11,3.442 -0.54,6.641 -1.25,9.692 -0.74,3 -1.83,5.781 -3.28,8.281 -1.48,2.57 -3.44,4.679 -5.94,6.25 -1.79,1.129 -3.75,1.949 -5.93,2.5 -2.11,0.621 -4.53,0.929 -7.35,0.929 -3.67,0 -7.26,-0.742 -10.78,-2.179 -3.44,-1.371 -6.52,-3.563 -9.22,-6.571 -2.73,-3.039 -5,-6.949 -6.87,-11.71 -1.88,-4.809 -3.09,-10.59 -3.6,-17.348 z" /><path
         id="path56"
         style="fill:#a25641;fill-opacity:1;fill-rule:nonzero;stroke:none"
         d="m 3348.2,346.801 -16.87,3.59 v 8.589 l 31.87,3.598 4.07,-1.719 v -57.66 c 1.75,1.449 3.67,2.891 5.78,4.379 2.18,1.563 4.57,2.973 7.18,4.223 2.58,1.25 5.47,2.219 8.6,2.969 3.2,0.699 6.72,1.089 10.47,1.089 5.5,0 10.93,-1.019 16.25,-2.968 5.31,-1.871 10,-5 14.06,-9.371 4.06,-4.301 7.34,-9.848 9.84,-16.719 2.5,-6.879 3.75,-15.242 3.75,-25 0,-8.442 -1.36,-16.492 -4.06,-24.071 -2.73,-7.609 -6.52,-14.289 -11.41,-20 -4.92,-5.621 -10.78,-10.152 -17.65,-13.589 -6.88,-3.321 -14.49,-5 -22.81,-5 -4.69,0 -9.22,0.269 -13.6,0.781 -4.37,0.547 -8.36,1.207 -11.87,2.027 -3.56,0.821 -6.53,1.641 -8.91,2.5 -2.42,0.942 -3.98,1.762 -4.69,2.5 z m 19.07,-129.223 c 1.01,-2.808 3.59,-4.848 7.65,-6.098 4.06,-1.25 8.95,-1.871 14.69,-1.871 4.26,0 8.44,0.942 12.5,2.813 4.14,1.879 7.85,4.769 11.09,8.75 3.21,3.949 5.82,8.988 7.82,15.156 2.07,6.133 3.16,13.442 3.28,21.871 0.19,7.891 -0.71,14.61 -2.66,20.16 -1.87,5.621 -4.37,10.161 -7.5,13.59 -3.05,3.52 -6.52,6.102 -10.47,7.66 -3.98,1.641 -8.05,2.5 -12.19,2.5 -2.93,0 -5.62,-0.308 -8.12,-0.937 -2.5,-0.551 -4.77,-1.25 -6.72,-2.192 -1.99,-0.929 -3.83,-1.992 -5.47,-3.121 -1.56,-1.058 -2.89,-2.031 -3.9,-2.968 z" /><path
         id="path58"
         style="fill:#a25641;fill-opacity:1;fill-rule:nonzero;stroke:none"
         d="m 3462.93,256.949 c 0,8.442 1.29,16.172 3.91,23.281 2.69,7.071 6.44,13.211 11.25,18.442 4.76,5.199 10.5,9.297 17.18,12.348 6.76,3 14.22,4.57 22.35,4.679 5.82,0.199 11.01,-0.621 15.62,-2.5 4.69,-1.789 8.67,-4.449 12.03,-7.969 3.32,-3.55 5.94,-7.929 7.82,-13.121 1.87,-5.121 2.89,-10.937 3.12,-17.5 0.08,-4.058 0,-7.66 -0.31,-10.781 -0.24,-3.047 -0.47,-5.707 -0.78,-7.969 h -73.28 c 0,-0.429 0,-0.859 0,-1.25 0,-0.308 0.04,-0.699 0.15,-1.089 0.2,-7.93 1.49,-14.5 3.91,-19.692 2.5,-5.238 5.55,-9.379 9.22,-12.5 3.63,-3.047 7.65,-5.156 12.03,-6.406 4.45,-1.25 8.79,-1.871 12.97,-1.871 2.58,0 5.31,0.148 8.12,0.469 2.81,0.308 5.55,0.699 8.28,1.25 2.7,0.621 5.16,1.281 7.35,2.031 2.26,0.699 4.14,1.437 5.62,2.179 l 3.6,-8.281 c -1.88,-1.789 -4.38,-3.359 -7.5,-4.679 -3.05,-1.372 -6.37,-2.579 -10,-3.598 -3.68,-0.942 -7.47,-1.602 -11.41,-2.031 -3.98,-0.512 -7.81,-0.782 -11.56,-0.782 -7.93,0 -14.96,1.371 -21.1,4.063 -6.17,2.699 -11.36,6.558 -15.62,11.558 -4.18,5 -7.42,10.981 -9.69,17.969 -2.19,7.071 -3.28,15 -3.28,23.75 z m 73.12,10.473 c 0.2,3.316 0.24,6.719 0.16,10.156 -0.12,3.442 -0.55,6.641 -1.25,9.692 -0.74,3 -1.84,5.781 -3.28,8.281 -1.48,2.57 -3.44,4.679 -5.94,6.25 -1.79,1.129 -3.75,1.949 -5.94,2.5 -2.1,0.621 -4.53,0.929 -7.34,0.929 -3.67,0 -7.26,-0.742 -10.78,-2.179 -3.44,-1.371 -6.52,-3.563 -9.22,-6.571 -2.73,-3.039 -5,-6.949 -6.87,-11.71 -1.88,-4.809 -3.09,-10.59 -3.6,-17.348 z" /><path
         id="path60"
         style="fill:#a25641;fill-opacity:1;fill-rule:nonzero;stroke:none"
         d="m 3582.7,230.551 h 8.9 l 3.75,-12.031 c 1.64,-1.372 3.28,-2.579 4.85,-3.598 1.64,-1.051 3.32,-1.871 5,-2.5 1.64,-0.621 3.43,-1.172 5.31,-1.563 1.95,-0.308 4.1,-0.55 6.4,-0.629 3.64,-0.109 7.04,0.161 10.16,0.79 3.13,0.699 5.78,1.871 7.97,3.429 2.26,1.571 4.06,3.481 5.31,5.781 1.25,2.391 1.88,5.239 1.88,8.598 0,2.891 -0.86,5.391 -2.5,7.5 -1.57,2.192 -3.71,4.102 -6.41,5.781 -2.62,1.641 -5.59,3.161 -8.91,4.532 -3.36,1.449 -6.79,3.05 -10.31,4.839 -3.87,1.758 -7.65,3.75 -11.4,5.942 -3.68,2.269 -6.96,4.769 -9.85,7.5 -2.81,2.699 -5.12,5.777 -6.87,9.219 -1.68,3.437 -2.5,7.339 -2.5,11.718 0.07,3.442 0.7,6.481 1.87,9.219 1.13,2.813 2.66,5.313 4.53,7.5 1.96,2.192 4.26,4.063 6.88,5.621 2.58,1.641 5.31,3.012 8.12,4.071 2.89,1.128 5.86,1.949 8.91,2.5 3.12,0.621 6.17,0.929 9.22,0.929 3.2,0.082 6.33,-0.078 9.37,-0.469 3.13,-0.308 5.98,-0.851 8.6,-1.558 2.69,-0.621 5.07,-1.371 7.18,-2.192 2.19,-0.859 4.07,-1.679 5.63,-2.5 v -21.25 h -8.44 l -4.22,11.098 c -0.93,1.012 -1.99,1.953 -3.12,2.813 -1.06,0.82 -2.27,1.558 -3.6,2.187 -1.36,0.621 -2.93,1.094 -4.68,1.402 -1.68,0.391 -3.56,0.629 -5.63,0.629 -3.24,0 -6.21,-0.308 -8.9,-0.937 -2.62,-0.621 -4.93,-1.641 -6.88,-2.973 -1.99,-1.25 -3.55,-2.969 -4.69,-5.148 -1.17,-2.11 -1.79,-4.61 -1.87,-7.5 -0.12,-2.93 0.62,-5.551 2.19,-7.821 1.56,-2.179 3.63,-4.179 6.25,-5.929 2.57,-1.801 5.54,-3.442 8.9,-5 3.32,-1.571 6.72,-3.211 10.16,-4.852 3.63,-1.789 7.26,-3.551 10.94,-5.308 3.75,-1.801 7.07,-3.911 10,-6.411 3,-2.5 5.46,-5.429 7.34,-8.75 1.87,-3.351 2.81,-7.3 2.81,-11.871 0,-5.629 -1.17,-10.589 -3.44,-14.839 -2.18,-4.18 -5.27,-7.661 -9.21,-10.469 -3.87,-2.821 -8.44,-4.93 -13.75,-6.25 -5.24,-1.449 -10.79,-2.192 -16.72,-2.192 -6.06,0 -12.11,0.743 -18.13,2.192 -5.94,1.32 -11.4,3.429 -16.4,6.25 z" /><path
         id="path62"
         style="fill:#a25641;fill-opacity:1;fill-rule:nonzero;stroke:none"
         d="m 3695.74,227.891 c 0,12.07 0,24.097 0,36.089 0.08,11.961 0.16,23.989 0.16,36.098 h -15.16 v 7.344 c 2.89,0.699 5.31,1.289 7.19,1.719 1.95,0.39 3.59,0.859 4.84,1.41 1.33,0.621 2.43,1.328 3.28,2.179 0.83,0.942 1.61,2.192 2.35,3.75 0.39,1.141 0.98,2.821 1.72,5 0.7,2.192 1.4,4.418 2.03,6.719 0.62,2.27 1.13,4.422 1.56,6.41 0.51,1.95 0.82,3.36 0.94,4.219 h 9.69 v -26.25 h 33.28 v -12.5 h -33.28 V 250.23 c 0,-7.609 0.07,-13.82 0.31,-18.589 0.19,-4.801 0.66,-8.551 1.4,-11.25 0.83,-2.731 1.96,-4.532 3.44,-5.469 1.56,-0.942 3.67,-1.402 6.41,-1.402 1.64,0 3.48,0.152 5.47,0.46 2.07,0.321 4.06,0.668 5.93,1.098 1.88,0.512 3.6,1.012 5.16,1.563 1.56,0.629 2.74,1.168 3.59,1.718 l 2.97,-8.75 c -1.48,-1.558 -3.43,-3.05 -5.93,-4.379 -2.5,-1.25 -5.24,-2.3 -8.13,-3.121 -2.93,-0.82 -5.9,-1.449 -8.91,-1.879 -2.93,-0.39 -5.46,-0.621 -7.65,-0.621 -7.19,0 -12.78,2.192 -16.72,6.563 -3.98,4.449 -5.94,11.719 -5.94,21.719 z" /></g></g></svg>